#N canvas 208 508 864 376 10;
#X msg 42 198 reload;
#X msg 264 180 xwig \$1;
#X msg 263 263 xstep \$1;
#X floatatom 264 161 5 0 0 0 - - -;
#X floatatom 263 244 5 0 0 0 - - -;
#X msg 264 117 ywig \$1;
#X floatatom 264 98 5 0 0 0 - - -;
#N canvas 0 0 450 300 graph1 0;
#X array array1 256 float 2;
#X coords 0 1 255 -1 200 140 1;
#X restore 631 130 graph;
#X obj 376 273 tabwrite~ array1;
#X obj 356 248 bng 15 250 50 0 empty empty empty 0 -6 0 8 -262144 -1
-1;
#X obj 384 246 metro 500;
#X obj 385 220 tgl 15 0 empty empty empty 0 -6 0 8 -262144 -1 -1 0
1;
#X obj 106 287 snd pd-stochastic.scm;
#X obj 266 203 hsl 50 15 1 8 0 0 empty empty empty -2 -6 0 8 -262144
-1 -1 1600 1;
#X obj 264 223 i;
#X obj 267 75 hsl 50 15 0 8 0 0 empty empty empty -2 -6 0 8 -262144
-1 -1 0 1;
#X obj 267 141 hsl 50 15 0 1 0 0 empty empty empty -2 -6 0 8 -262144
-1 -1 0 1;
#N canvas 0 0 450 300 output 0;
#X obj 367 134 t b;
#X obj 362 85 f;
#X obj 368 34 inlet;
#X text 370 12 mute;
#X obj 367 159 f;
#X msg 455 152 0;
#X msg 368 59 bang;
#X obj 368 109 moses 1;
#X obj 455 127 t b f;
#X obj 427 91 moses 1;
#X obj 144 131 dbtorms;
#X obj 427 66 r master-lvl;
#X obj 119 26 r master-lvl;
#X obj 368 184 s master-lvl;
#X obj 228 44 inlet;
#X text 206 11 level;
#X obj 213 111 s master-lvl;
#X msg 132 49 set \$1;
#X obj 132 73 outlet;
#X msg 238 70 \; pd dsp 1;
#X obj 171 176 line~;
#X obj 116 209 *~;
#X obj 75 235 dac~;
#X obj 144 154 pack 0 50;
#X text 82 152 audio;
#X text 145 91 show level;
#X obj 60 205 *~;
#X obj 2 174 inlet~;
#X obj 80 174 inlet~;
#X connect 0 0 4 0;
#X connect 1 0 7 0;
#X connect 2 0 6 0;
#X connect 4 0 13 0;
#X connect 5 0 13 0;
#X connect 6 0 1 0;
#X connect 7 0 0 0;
#X connect 7 1 8 0;
#X connect 8 0 5 0;
#X connect 9 1 4 1;
#X connect 10 0 23 0;
#X connect 11 0 1 1;
#X connect 11 0 9 0;
#X connect 12 0 10 0;
#X connect 12 0 17 0;
#X connect 14 0 16 0;
#X connect 14 0 19 0;
#X connect 17 0 18 0;
#X connect 20 0 21 1;
#X connect 20 0 26 1;
#X connect 21 0 22 1;
#X connect 23 0 20 0;
#X connect 26 0 22 0;
#X connect 27 0 26 0;
#X connect 28 0 21 0;
#X restore 240 321 pd output;
#X floatatom 293 296 5 0 0 0 - - -;
#X msg 341 295 mute;
#X text 407 220 click to watch waveform;
#X text 331 52 1 bring up output volume;
#X text 331 74 2 sloowly bring up ywig value;
#X text 333 142 3 play with other values;
#X connect 0 0 12 0;
#X connect 1 0 12 0;
#X connect 2 0 12 0;
#X connect 3 0 1 0;
#X connect 4 0 2 0;
#X connect 5 0 12 0;
#X connect 6 0 5 0;
#X connect 9 0 8 0;
#X connect 10 0 8 0;
#X connect 11 0 10 0;
#X connect 12 1 8 0;
#X connect 12 1 17 0;
#X connect 12 1 17 1;
#X connect 13 0 14 0;
#X connect 14 0 4 0;
#X connect 15 0 6 0;
#X connect 16 0 3 0;
#X connect 17 0 18 0;
#X connect 18 0 17 2;
#X connect 19 0 17 3;

